<?xml version="1.0" standalone="no"?>
<!DOCTYPE svg PUBLIC "-//W3C//DTD SVG 1.1//EN" "http://www.w3.org/Graphics/SVG/1.1/DTD/svg11.dtd" >
<svg xmlns="http://www.w3.org/2000/svg" xmlns:xlink="http://www.w3.org/1999/xlink" version="1.1">
<metadata>
Created by FontForge 20170731 at Tue May 24 20:52:41 2016
 By Aleksey,,,
Copyright (c) 2015, Cadson Demak (info@cadsondemak.com)
</metadata>
<defs>
<font id="Prompt-ThinItalic" horiz-adv-x="0" >
  <font-face 
    font-family="Prompt Thin"
    font-weight="250"
    font-style="italic"
    font-stretch="normal"
    units-per-em="1000"
    panose-1="0 0 2 0 0 0 0 0 0 0"
    ascent="750"
    descent="-250"
    bbox="-471 -346 1077 1005"
    underline-thickness="50"
    underline-position="-150"
    slope="-12"
    unicode-range="U+0020-0E5B"
  />
<missing-glyph horiz-adv-x="531" 
d="M10 714h411v-714h-411v714zM370 51v612h-309v-612h309z" />
    <glyph glyph-name="ru_lakkhangyaothai" unicode="&#xe24;&#xe45;" horiz-adv-x="838" 
d="M530 354q6 30 6 54q0 61 -39.5 89.5t-121.5 28.5q-74 0 -130.5 -22.5t-112.5 -74.5l32 -71l-59 -276q-3 -12 -3 -22q0 -19 12.5 -27.5t41.5 -8.5h51l-5 -24h-59q-34 0 -51.5 15.5t-17.5 44.5q0 11 3 24l58 270l-34 75q60 60 125.5 90.5t153.5 30.5q75 0 124 -27
q27 12 64 19.5t75 7.5q148 0 148 -129q0 -27 -8 -64l-117 -553h-28l118 554q8 38 8 64q0 51 -29.5 77.5t-94.5 26.5q-66 0 -117 -18q41 -36 41 -101q0 -28 -5 -49l-118 -554h-28z" />
    <glyph glyph-name="lu_lakkhangyaothai" unicode="&#xe26;&#xe45;" horiz-adv-x="872" 
d="M564 354q6 30 6 54q0 61 -39.5 89.5t-121.5 28.5q-74 0 -130.5 -22t-112.5 -74l52 -71l-59 -275q-9 -42 -32 -63t-68 -21h-49l5 24h41q33 0 50.5 13t24.5 45l58 272l-54 75q60 60 125.5 90.5t153.5 30.5q75 0 124 -27q27 12 64 19.5t75 7.5q148 0 148 -129q0 -27 -8 -64
l-117 -553h-28l118 554q7 32 7 63q0 52 -29 78.5t-94 26.5q-66 0 -117 -18q41 -36 41 -101q0 -28 -5 -49l-118 -554h-28z" />
    <glyph glyph-name=".notdef" horiz-adv-x="531" 
d="M10 714h411v-714h-411v714zM370 51v612h-309v-612h309z" />
    <glyph glyph-name=".null" horiz-adv-x="500" 
 />
    <glyph glyph-name="nonmarkingreturn" horiz-adv-x="260" 
 />
    <glyph glyph-name="space" unicode=" " horiz-adv-x="400" 
 />
    <glyph glyph-name="uni0E01" unicode="&#xe01;" horiz-adv-x="613" 
d="M135 354l-34 75q60 60 125.5 90.5t153.5 30.5q91 0 138 -37t47 -105q0 -23 -6 -50l-76 -358h-28l75 354q6 30 6 54q0 61 -39.5 89.5t-121.5 28.5q-74 0 -130.5 -22.5t-112.5 -74.5l32 -71l-76 -358h-28z" />
    <glyph glyph-name="uni0E02" unicode="&#xe02;" horiz-adv-x="540" 
d="M87.5 22q-42.5 37 -42.5 104q0 24 6 52l15 69q7 30 26.5 56t55.5 61q29 29 45 49.5t21 41.5q2 7 2 20q0 20 -12.5 28t-40.5 8h-45l5 24h51q69 0 69 -56q0 -10 -3 -24q-5 -23 -22.5 -46t-49.5 -55q-33 -34 -51 -57t-23 -48l-16 -77q-5 -21 -5 -48q0 -57 35.5 -86
t104.5 -29q82 0 135 42.5t70 120.5l77 363h28l-76 -357q-19 -94 -81 -143.5t-158 -49.5q-78 0 -120.5 37z" />
    <glyph glyph-name="uni0E03" unicode="&#xe03;" horiz-adv-x="536" 
d="M83.5 21q-42.5 36 -42.5 103q0 26 6 54l15 69q7 30 28.5 56.5t58.5 60.5q31 30 48 50t22 41l1 3q-24 -14 -55 -14q-24 0 -37.5 11t-13.5 32q0 4 2 14l7 34h28l-6 -31q-2 -12 -2 -16q0 -11 7.5 -15.5t26.5 -4.5q25 0 48 14l11 53h26l-17 -82q-5 -24 -23.5 -46.5
t-53.5 -55.5q-34 -31 -53.5 -54t-24.5 -48l-16 -77q-6 -27 -6 -49q0 -55 35.5 -84.5t105.5 -29.5q82 0 135 42.5t70 120.5l77 363h28l-76 -357q-20 -94 -80.5 -143.5t-158.5 -49.5q-78 0 -120.5 36z" />
    <glyph glyph-name="uni0E04" unicode="&#xe04;" horiz-adv-x="612" 
d="M105 353q20 95 88.5 146t178.5 51q92 0 141 -38t49 -109q0 -27 -5 -50l-75 -353h-28l75 353q5 21 5 48q0 63 -43 94t-124 31q-92 0 -154 -43t-80 -130l-33 -153q23 34 64 56t89 22h76l-6 -24h-81q-35 0 -69 -18t-57.5 -46t-29.5 -57l-28 -133h-28z" />
    <glyph glyph-name="uni0E05" unicode="&#xe05;" horiz-adv-x="612" 
d="M116 406q15 70 50 107t100 37q39 0 61.5 -19t27.5 -54h1q19 35 50.5 54t71.5 19q96 0 96 -92q0 -23 -6 -52l-86 -406h-28l86 405q7 35 7 54q0 34 -17 50.5t-57 16.5q-38 0 -64 -18.5t-45 -58.5h-27q-2 41 -20 59t-56 18q-51 0 -77.5 -30t-39.5 -90l-44 -206
q24 35 63 56.5t90 21.5h76l-6 -24h-81q-35 0 -69 -18t-57.5 -46t-29.5 -57l-28 -133h-28z" />
    <glyph glyph-name="uni0E06" unicode="&#xe06;" horiz-adv-x="588" 
d="M139.5 10.5q-51.5 25.5 -82.5 81.5l-19 -92h-28l49 232q7 30 28.5 58.5t59.5 67.5q32 32 49.5 54t22.5 43l1 3q-24 -14 -55 -14q-23 0 -37 11.5t-14 31.5q0 4 2 14l7 34h28l-6 -31q-2 -12 -2 -15q0 -11 7.5 -16t26.5 -5q25 0 48 14l11 53h26l-17 -82q-5 -23 -24 -47.5
t-54 -59.5q-35 -36 -55 -61.5t-25 -50.5l-23 -107q53 -118 191 -118q87 0 140.5 40.5t69.5 115.5l78 370h28l-79 -371q-17 -85 -80.5 -132t-161.5 -47q-59 0 -110.5 25.5z" />
    <glyph glyph-name="uni0E07" unicode="&#xe07;" horiz-adv-x="590" 
d="M109 468h28l64 -444q124 0 205.5 67t105.5 182q11 53 11 95q0 158 -154 158q-37 0 -66 -9l6 25q28 8 70 8q85 0 127.5 -47.5t42.5 -134.5q0 -42 -11 -95q-19 -86 -65.5 -147.5t-113.5 -93.5t-145 -32h-38z" />
    <glyph glyph-name="uni0E08" unicode="&#xe08;" horiz-adv-x="574" 
d="M116 294h28l9 -270q84 0 156.5 31t121.5 88.5t66 135.5q9 44 9 80q0 167 -194 167q-111 0 -198 -35l5 25q39 16 90.5 25t107.5 9q105 0 160 -49t55 -142q0 -36 -9 -80q-17 -83 -69.5 -146t-128 -98t-159.5 -35h-40z" />
    <glyph glyph-name="uni0E09" unicode="&#xe09;" horiz-adv-x="587" 
d="M102.5 19q-40.5 34 -40.5 96q0 28 5 49l31 146h28l-30 -145q-6 -27 -6 -51q0 -53 33 -79t104 -26q62 0 118 29.5t111 91.5l37 175q10 50 10 81q0 72 -43.5 106t-140.5 34q-56 0 -109.5 -9t-95.5 -26l5 25q38 16 93 25t112 9q104 0 155.5 -40.5t51.5 -123.5q0 -31 -10 -81
l-64 -305h-28l19 92q-51 -55 -109 -81t-117 -26q-79 0 -119.5 34z" />
    <glyph glyph-name="uni0E0A" unicode="&#xe0a;" horiz-adv-x="568" 
d="M92.5 22.5q-46.5 37.5 -46.5 106.5q0 23 6 50l15 74q7 31 27 56.5t57 61.5q28 27 43.5 46t19.5 38q2 7 2 20q0 20 -12.5 28t-40.5 8h-45l5 24h51q69 0 69 -56q0 -10 -3 -24q-5 -22 -21.5 -43t-47.5 -52q-34 -34 -52.5 -57.5t-23.5 -49.5l-17 -80q-5 -27 -5 -45
q0 -58 39 -88.5t112 -30.5q93 0 155.5 46.5t83.5 142.5q8 33 8 67q0 115 -122 115l5 20l151 150h34l-151 -150q55 -9 81.5 -45.5t26.5 -92.5q0 -33 -7 -64q-24 -109 -95 -161t-175 -52q-80 0 -126.5 37.5z" />
    <glyph glyph-name="uni0E0B" unicode="&#xe0b;" horiz-adv-x="564" 
d="M88.5 22.5q-46.5 37.5 -46.5 106.5q0 23 6 50l14 68q7 30 28.5 56.5t58.5 60.5q31 30 48 50t22 41l1 3q-24 -14 -55 -14q-23 0 -37 11.5t-14 31.5q0 4 2 14l7 34h28l-6 -31q-2 -12 -2 -16q0 -11 7.5 -15.5t26.5 -4.5q25 0 48 14l11 53h26l-17 -82q-5 -25 -24 -47.5
t-54 -55.5q-35 -34 -53.5 -56t-23.5 -47l-16 -74q-5 -27 -5 -44q0 -58 38.5 -89t112.5 -31q93 0 156 47t83 142q7 34 7 64q0 118 -121 118l5 20l151 150h34l-151 -150q54 -9 81 -46.5t27 -94.5q0 -24 -7 -61q-24 -109 -95 -161t-175 -52q-80 0 -126.5 37.5z" />
    <glyph glyph-name="uni0E0C" unicode="&#xe0c;" horiz-adv-x="993" 
d="M563 11q-48 26 -81 81l-19 -92h-28l75 354q7 37 7 57q0 60 -37 87.5t-115 27.5q-70 0 -123.5 -22.5t-109.5 -74.5l32 -71l-59 -276q-3 -12 -3 -21q0 -20 13 -28.5t41 -8.5h51l-5 -24h-59q-34 0 -51.5 15.5t-17.5 44.5q0 11 3 24l58 270l-34 75q60 61 122.5 91t146.5 30
q87 0 131 -36t44 -103q0 -24 -6 -53l-49 -228q28 -62 73 -91.5t107 -29.5q83 0 133.5 40.5t66.5 115.5l78 370h28l-79 -371q-18 -86 -75.5 -132.5t-156.5 -46.5q-54 0 -102 26z" />
    <glyph glyph-name="uni0E0D" unicode="&#xe0d;" horiz-adv-x="994" 
d="M541 -84.5q-47 13.5 -70 32.5l6 25q32 -23 74 -35t87 -12q87 0 143 28t68 85q3 15 3 27q0 30 -21 52q-69 -53 -169 -53q-88 0 -132 39t-44 110q0 27 6 58l18 82q7 37 7 57q0 59 -37.5 87t-114.5 28q-70 0 -123.5 -22.5t-109.5 -74.5l32 -71l-59 -276q-3 -12 -3 -21
q0 -20 12.5 -28.5t39.5 -8.5h53l-5 -24h-59q-34 0 -51.5 15.5t-17.5 44.5q0 11 3 24l58 270l-34 75q60 61 122.5 91t146.5 30q87 0 131 -36t44 -103q0 -24 -6 -53l-20 -91q-7 -35 -7 -56q0 -122 155 -122q90 0 148.5 48.5t75.5 129.5l57 268h28l-56 -263q-16 -82 -70 -136
q28 -28 28 -69q0 -13 -3 -28q-15 -68 -78.5 -102.5t-163.5 -34.5q-45 0 -92 13.5z" />
    <glyph glyph-name="uni0E0E" unicode="&#xe0e;" horiz-adv-x="647" 
d="M119 -195q24 24 72.5 41.5t91.5 17.5q45 0 85 -14t79 -46l117 550q6 29 6 52q0 62 -40 91t-121 29q-74 0 -130.5 -22.5t-112.5 -74.5l52 -71l-59 -274q-8 -40 -34 -62t-66 -22h-49l5 24h41q33 0 50.5 13t24.5 45l58 272l-54 75q60 60 125.5 90.5t153.5 30.5q91 0 138 -37
t47 -105q0 -23 -6 -50l-123 -579h-28q-43 35 -79.5 48t-85.5 13q-43 0 -86.5 -17t-77.5 -47z" />
    <glyph glyph-name="uni0E0F" unicode="&#xe0f;" horiz-adv-x="647" 
d="M91.5 -216.5q-25.5 7.5 -38.5 18.5l6 24q16 -12 40 -19t49 -7q54 0 86.5 22t55.5 73h28l129 -90l117 549q6 30 6 54q0 62 -40.5 90t-120.5 28q-74 0 -130.5 -22t-112.5 -74l52 -71l-59 -275q-17 -84 -100 -84h-49l5 24h41q33 0 50.5 13t24.5 45l58 272l-54 75
q60 60 125.5 90.5t153.5 30.5q91 0 138 -37t47 -105q0 -23 -6 -50l-123 -579h-28l-137 96q-28 -54 -67.5 -76.5t-94.5 -22.5q-26 0 -51.5 7.5z" />
    <glyph glyph-name="uni0E10" unicode="&#xe10;" horiz-adv-x="577" 
d="M116 294h28l9 -270q84 0 156.5 31t121.5 88.5t66 135.5q9 44 9 80q0 167 -194 167q-111 0 -198 -35l5 25q39 16 90.5 25t107.5 9q102 0 158 -48l83 73h31l-99 -87q42 -48 42 -129q0 -36 -9 -80q-18 -84 -70.5 -147t-127.5 -97.5t-159 -34.5h-40zM19.5 -216.5
q-25.5 7.5 -39.5 17.5l6 25q16 -12 40 -19t49 -7q54 0 86.5 22t55.5 73h28l129 -90l26 121h28l-31 -147h-28l-137 96q-28 -54 -67.5 -76.5t-94.5 -22.5q-25 0 -50.5 7.5z" />
    <glyph glyph-name="uni0E11" unicode="&#xe11;" horiz-adv-x="598" 
d="M72 247q7 30 26 55t55 62q29 29 45 49.5t21 41.5l1 3q-24 -14 -55 -14q-23 0 -37 11.5t-14 31.5q0 4 2 14l7 34h28l-6 -31q-2 -12 -2 -15q0 -11 7.5 -16t26.5 -5q25 0 48 14l11 53h26l-13 -62q81 77 185 77q121 0 121 -111q0 -25 -6 -57l-81 -382h-28l80 381q7 31 7 59
q0 43 -23 64.5t-75 21.5q-53 0 -99.5 -21.5t-91.5 -68.5q-9 -22 -24.5 -41.5t-45.5 -50.5q-29 -28 -46 -49.5t-22 -45.5l-52 -249h-28z" />
    <glyph glyph-name="uni0E12" unicode="&#xe12;" horiz-adv-x="1025" 
d="M106 34q-51 49 -51 142q0 37 9 82q30 139 86.5 215.5t135.5 76.5q42 0 61.5 -18.5t25.5 -54.5h1q19 34 52 53.5t73 19.5q88 0 88 -88q0 -26 -6 -56l-59 -281q52 -116 180 -116q79 0 131.5 41t68.5 115l78 370h28l-79 -371q-18 -86 -76 -132.5t-156 -46.5q-58 0 -106.5 27
t-76.5 80l-19 -92h-28l86 405q7 37 7 55q0 33 -15.5 49.5t-50.5 16.5q-39 0 -65.5 -18.5t-45.5 -58.5h-28q-2 41 -19 59t-55 18q-61 0 -112.5 -71t-78.5 -197q-9 -45 -9 -82q0 -82 44.5 -124.5t127.5 -42.5q17 0 38.5 2t35.5 5l-5 -23q-13 -3 -35 -5.5t-39 -2.5
q-91 0 -142 49z" />
    <glyph glyph-name="uni0E13" unicode="&#xe13;" horiz-adv-x="993" 
d="M505 19.5q-41 34.5 -41 97.5q0 19 5 47l41 190q7 37 7 58q0 59 -37 86.5t-115 27.5q-70 0 -123.5 -22.5t-109.5 -74.5l32 -71l-59 -276q-3 -12 -3 -22q0 -19 12 -27.5t39 -8.5h54l-5 -24h-59q-34 0 -51.5 15.5t-17.5 44.5q0 11 3 24l58 270l-34 75q60 61 122.5 91
t146.5 30q87 0 131 -36t44 -103q0 -24 -6 -53l-41 -193q-6 -25 -6 -48q0 -108 138 -108q125 0 232 121l86 405h28l-113 -535h-28l19 92q-53 -55 -113.5 -81t-115.5 -26q-79 0 -120 34.5z" />
    <glyph glyph-name="uni0E14" unicode="&#xe14;" horiz-adv-x="645" 
d="M106.5 35q-51.5 50 -51.5 142q0 38 9 81q30 138 115.5 215t213.5 77q107 0 153.5 -43.5t46.5 -112.5q0 -26 -6 -53l-72 -341h-28l72 342q6 29 6 54q0 63 -42 96.5t-135 33.5q-111 0 -191 -70.5t-107 -197.5q-9 -45 -9 -81q0 -82 45 -125t127 -43q17 0 38.5 2t35.5 5
l-5 -23q-13 -3 -35 -5.5t-39 -2.5q-90 0 -141.5 50z" />
    <glyph glyph-name="uni0E15" unicode="&#xe15;" horiz-adv-x="645" 
d="M105 34q-51 49 -51 140q0 32 10 84q29 136 91.5 214t139.5 78q42 0 62.5 -18.5t26.5 -54.5h1q19 34 53.5 53.5t74.5 19.5q94 0 94 -94q0 -23 -6 -50l-86 -406h-28l86 405q6 29 6 52q0 34 -16.5 51.5t-53.5 17.5q-80 0 -116 -77h-28q-2 41 -19 59t-55 18q-40 0 -79.5 -32
t-71.5 -92.5t-50 -143.5q-10 -44 -10 -84q0 -81 44.5 -123t128.5 -42q17 0 38.5 2t35.5 5l-5 -23q-13 -3 -35 -5.5t-39 -2.5q-92 0 -143 49z" />
    <glyph glyph-name="uni0E16" unicode="&#xe16;" horiz-adv-x="613" 
d="M91.5 15.5q-17.5 15.5 -17.5 44.5q0 11 3 24l58 270l-34 75q60 60 125.5 90.5t153.5 30.5q91 0 138 -37t47 -105q0 -23 -6 -50l-76 -358h-28l75 354q6 30 6 54q0 61 -39.5 89.5t-121.5 28.5q-74 0 -130.5 -22.5t-112.5 -74.5l32 -71l-59 -276q-3 -12 -3 -22
q0 -19 12 -27.5t38 -8.5h55l-5 -24h-59q-34 0 -51.5 15.5z" />
    <glyph glyph-name="uni0E17" unicode="&#xe17;" horiz-adv-x="608" 
d="M143 535h28l-19 -89q52 54 117.5 79t126.5 25q81 0 123.5 -35.5t42.5 -97.5q0 -18 -5 -43l-79 -374h-28l79 373q5 25 5 43q0 53 -35.5 81.5t-107.5 28.5q-143 0 -247 -118l-86 -408h-28z" />
    <glyph glyph-name="uni0E18" unicode="&#xe18;" horiz-adv-x="540" 
d="M90.5 18q-52.5 33 -52.5 93q0 9 4 31l15 70h28l-16 -75q-3 -13 -3 -25q0 -50 44 -76.5t118 -26.5q83 0 136.5 30t66.5 90q5 23 5 37q0 29 -16 48t-49 33t-94 30q-63 17 -97.5 30t-58 35.5t-23.5 58.5q0 15 2 23q13 69 73 97.5t160 28.5q47 0 99.5 -12t74.5 -29l-6 -25
q-29 20 -74.5 31t-98.5 11q-88 0 -139 -22t-63 -80q-3 -12 -3 -22q0 -28 19 -45.5t52.5 -29.5t99.5 -30q61 -17 94.5 -31t53.5 -37t20 -60q0 -15 -5 -40q-15 -69 -73.5 -106.5t-160.5 -37.5q-80 0 -132.5 33z" />
    <glyph glyph-name="uni0E19" unicode="&#xe19;" horiz-adv-x="608" 
d="M103 20.5q-44 35.5 -44 99.5q0 17 5 44l79 371h28l-78 -370q-5 -27 -5 -45q0 -111 147 -111q135 0 242 121l86 405h28l-113 -535h-28l19 92q-53 -55 -116.5 -81t-122.5 -26q-83 0 -127 35.5z" />
    <glyph glyph-name="uni0E1A" unicode="&#xe1a;" horiz-adv-x="622" 
d="M115.5 27q-50.5 42 -50.5 116q0 28 5 49l73 343h28l-74 -349q-5 -25 -5 -44q0 -62 43 -97.5t127 -35.5q96 0 160 48.5t81 128.5l74 349h28l-73 -343q-21 -98 -92.5 -152.5t-182.5 -54.5q-91 0 -141.5 42z" />
    <glyph glyph-name="uni0E1B" unicode="&#xe1b;" horiz-adv-x="622" 
d="M115.5 27q-50.5 42 -50.5 116q0 28 5 49l73 343h28l-74 -349q-5 -27 -5 -46q0 -62 43 -96.5t127 -34.5q96 0 160 48.5t81 128.5l112 528h28l-111 -522q-20 -96 -92.5 -151.5t-182.5 -55.5q-91 0 -141.5 42z" />
    <glyph glyph-name="uni0E1C" unicode="&#xe1c;" horiz-adv-x="623" 
d="M125 451q17 84 97 84h45l-5 -24h-36q-31 0 -48 -13t-24 -45l-86 -405l268 342h15l124 -342l103 487h28l-113 -535h-28l-127 354l-278 -354h-30z" />
    <glyph glyph-name="uni0E1D" unicode="&#xe1d;" horiz-adv-x="623" 
d="M125 451q18 84 97 84h45l-5 -24h-36q-31 0 -48 -13t-24 -45l-86 -405l268 342h15l124 -342l141 666h28l-151 -714h-28l-127 354l-278 -354h-30z" />
    <glyph glyph-name="uni0E1E" unicode="&#xe1e;" horiz-adv-x="751" 
d="M113 535h28l27 -488l255 488h31l47 -488l235 488h28l-261 -535h-20l-49 506l-262 -506h-24z" />
    <glyph glyph-name="uni0E1F" unicode="&#xe1f;" horiz-adv-x="746" 
d="M113 535h28l27 -488l255 488h31l47 -488l318 667h28l-344 -714h-20l-49 506l-262 -506h-24z" />
    <glyph glyph-name="uni0E20" unicode="&#xe20;" horiz-adv-x="647" 
d="M15 24h41q33 0 50.5 13t24.5 45l58 272l-54 75q60 60 125.5 90.5t153.5 30.5q90 0 137 -37t47 -106q0 -28 -5 -49l-76 -358h-28l75 354q6 30 6 54q0 61 -39.5 89.5t-121.5 28.5q-74 0 -130.5 -22t-112.5 -74l52 -71l-59 -275q-9 -41 -32.5 -62.5t-67.5 -21.5h-49z" />
    <glyph glyph-name="uni0E21" unicode="&#xe21;" horiz-adv-x="608" 
d="M160 11.5q-52 26.5 -83 80.5l-19 -92h-28l113 535h28l-86 -407q27 -60 75.5 -89.5t114.5 -29.5q87 0 140.5 40.5t69.5 115.5l78 370h28l-79 -371q-18 -86 -78.5 -132.5t-163.5 -46.5q-58 0 -110 26.5z" />
    <glyph glyph-name="uni0E22" unicode="&#xe22;" horiz-adv-x="604" 
d="M90.5 15.5q-53.5 30.5 -53.5 94.5q0 19 4 36q11 54 45.5 91t86.5 50q-78 27 -78 96q0 14 3 30q13 60 59.5 98.5t115.5 38.5q43 0 71 -10l-5 -23q-27 9 -71 9q-55 0 -94 -31t-50 -82q-3 -12 -3 -25q0 -41 31 -66t87 -25h53l-5 -24h-51q-67 0 -111.5 -32t-57.5 -95
q-4 -22 -4 -32q0 -52 45 -78.5t132 -26.5q106 0 167 49t79 135l72 342h28l-72 -341q-19 -89 -84 -149t-195 -60q-91 0 -144.5 30.5z" />
    <glyph glyph-name="uni0E23" unicode="&#xe23;" horiz-adv-x="490" 
d="M95.5 0q-47.5 15 -77.5 39l5 25q70 -55 172 -55q83 0 128 27.5t56 82.5q5 23 5 37q0 36 -29 58t-107 43q-80 23 -117.5 48t-37.5 74q0 8 4 32q15 70 70.5 104.5t145.5 34.5q42 0 80 -11.5t64 -29.5l-6 -25q-31 21 -64.5 31.5t-78.5 10.5q-161 0 -185 -115q-4 -22 -4 -30
q0 -39 32 -60.5t113 -43.5q78 -21 111.5 -47.5t33.5 -72.5q0 -19 -4 -38q-27 -134 -216 -134q-46 0 -93.5 15z" />
    <glyph glyph-name="uni0E24" unicode="&#xe24;" horiz-adv-x="613" 
d="M530 354q7 37 7 56q0 60 -40 88t-122 28q-74 0 -130.5 -22.5t-112.5 -74.5l32 -71l-59 -276q-3 -12 -3 -22q0 -19 12 -27.5t38 -8.5h55l-5 -24h-59q-34 0 -51.5 15.5t-17.5 44.5q0 11 3 24l58 270l-34 75q60 60 125.5 90.5t153.5 30.5q91 0 138 -37t47 -105q0 -23 -6 -50
l-118 -554h-28z" />
    <glyph glyph-name="uni0E25" unicode="&#xe25;" horiz-adv-x="575" 
d="M75.5 15.5q-39.5 30.5 -39.5 89.5q0 18 5 45q18 81 78 123t153 42q116 0 201 -47l20 93q6 30 6 54q0 58 -38.5 84.5t-118.5 26.5q-46 0 -90 -7t-77 -21l6 25q28 12 75 19.5t91 7.5q92 0 136 -35.5t44 -101.5q0 -25 -6 -54l-76 -359h-28l51 244q-44 25 -92.5 36t-108.5 11
q-81 0 -133 -36t-67 -105q-5 -25 -5 -42q0 -99 132 -99q17 0 38.5 2t35.5 5l-5 -23q-13 -3 -35 -5.5t-39 -2.5q-74 0 -113.5 30.5z" />
    <glyph glyph-name="uni0E26" unicode="&#xe26;" horiz-adv-x="647" 
d="M564 354q6 29 6 53q0 61 -40 90t-121 29q-74 0 -130.5 -22t-112.5 -74l52 -71l-59 -275q-17 -84 -100 -84h-49l5 24h41q33 0 50.5 13t24.5 45l58 272l-54 75q60 60 125.5 90.5t153.5 30.5q91 0 138 -37t47 -105q0 -23 -6 -50l-118 -554h-28z" />
    <glyph glyph-name="uni0E27" unicode="&#xe27;" horiz-adv-x="583" 
d="M17 36l6 29q53 -56 172 -56q118 0 200 66t108 192q9 44 9 79q0 89 -53.5 134.5t-153.5 45.5q-119 0 -196 -56l7 29q82 51 194 51q107 0 167.5 -53t60.5 -151q0 -37 -9 -79q-28 -134 -118 -208t-221 -74q-112 0 -173 51z" />
    <glyph glyph-name="uni0E28" unicode="&#xe28;" horiz-adv-x="613" 
d="M105 353q19 94 89 145.5t178 51.5q91 0 139 -36l69 61h33l-86 -77q36 -36 36 -97q0 -22 -6 -48l-75 -353h-28l75 353q5 21 5 48q0 63 -43 94t-124 31q-92 0 -154 -43t-80 -130l-33 -153q23 34 64 56t89 22h76l-6 -24h-81q-35 0 -69 -18t-57.5 -46t-29.5 -57l-28 -133h-28
z" />
    <glyph glyph-name="uni0E29" unicode="&#xe29;" horiz-adv-x="644" 
d="M115.5 27q-50.5 42 -50.5 116q0 28 5 49l73 343h28l-74 -349q-5 -25 -5 -42q0 -62 44 -98.5t126 -36.5q96 0 160 48.5t81 128.5l22 105h-157l5 24h157l47 220h28l-47 -220h67l-5 -24h-67l-21 -99q-20 -94 -94 -150.5t-181 -56.5q-91 0 -141.5 42z" />
    <glyph glyph-name="uni0E2A" unicode="&#xe2a;" horiz-adv-x="577" 
d="M75.5 15.5q-39.5 30.5 -39.5 89.5q0 18 5 45q18 80 79 122.5t152 42.5q116 0 201 -47l20 93q6 29 6 51q0 58 -39 86t-118 28q-46 0 -90 -7t-77 -21l6 25q28 12 75 19.5t91 7.5q90 0 137 -38l72 63h33l-89 -78q27 -33 27 -85q0 -24 -6 -53l-76 -359h-28l51 244
q-44 25 -92.5 36t-108.5 11q-79 0 -132 -36t-68 -105q-5 -25 -5 -42q0 -99 132 -99q17 0 38.5 2t35.5 5l-5 -23q-13 -3 -35 -5.5t-39 -2.5q-74 0 -113.5 30.5z" />
    <glyph glyph-name="uni0E2B" unicode="&#xe2b;" horiz-adv-x="578" 
d="M143 535h28l-64 -299l407 299h38l-169 -127q62 -15 90 -46.5t28 -79.5q0 -23 -6 -52l-48 -230h-28l48 230q6 29 6 52q0 44 -26.5 69t-88.5 38l-258 -187l-42 -202h-28z" />
    <glyph glyph-name="uni0E2C" unicode="&#xe2c;" horiz-adv-x="624" 
d="M143 535h28l-103 -487l268 342h15l124 -342l76 358q7 31 7 57q0 42 -24 61.5t-80 19.5l4 20l152 150h34l-152 -150q51 -9 72.5 -34t21.5 -66q0 -21 -7 -58l-86 -406h-27l-128 354l-277 -354h-31z" />
    <glyph glyph-name="uni0E2D" unicode="&#xe2d;" horiz-adv-x="586" 
d="M94 0q-46 15 -75 46l48 226h169l-5 -24h-141l-41 -194q52 -45 149 -45q117 0 199.5 66t108.5 192q9 44 9 79q0 89 -53.5 134.5t-153.5 45.5q-113 0 -196 -56l7 29q87 51 194 51t167.5 -53t60.5 -151q0 -37 -9 -79q-28 -133 -118 -207.5t-221 -74.5q-53 0 -99 15z" />
    <glyph glyph-name="uni0E2E" unicode="&#xe2e;" horiz-adv-x="586" 
d="M94 0q-46 15 -75 46l48 226h169l-5 -24h-141l-41 -194q30 -25 66 -35t83 -10q117 0 199.5 66t108.5 192q9 42 9 78q0 89 -54 135t-153 46q-119 0 -196 -56l7 29q79 51 194 51q101 0 160 -48l84 73h31l-99 -87q51 -51 51 -143q0 -41 -8 -78q-27 -134 -118 -208t-221 -74
q-53 0 -99 15z" />
    <glyph glyph-name="uni0E2F" unicode="&#xe2f;" horiz-adv-x="462" 
d="M369 306q-33 -23 -76.5 -35.5t-86.5 -12.5q-60 0 -97.5 28t-37.5 82q0 18 4 35q15 72 62.5 109.5t114.5 37.5q47 0 70 -10l-5 -23q-24 9 -70 9q-56 0 -94.5 -30.5t-51.5 -92.5q-4 -24 -4 -32q0 -45 30.5 -67t83.5 -22q88 0 163 49l43 204h28l-113 -535h-28z" />
    <glyph glyph-name="uni0E30" unicode="&#xe30;" horiz-adv-x="302" 
d="M92 381q0 4 2 16l8 37h28l-7 -32q-2 -10 -2 -14q0 -11 8 -16t27 -5h114l-6 -24h-123q-49 0 -49 38zM33 103q0 4 2 16l8 37h28l-7 -32q-2 -12 -2 -14q0 -11 8 -16t26 -5h114l-5 -24h-123q-49 0 -49 38z" />
    <glyph glyph-name="uni0E31" unicode="&#xe31;" 
d="M-189 672q0 4 2 16l8 37h28l-7 -32q-2 -12 -2 -14q0 -11 8 -16t26 -5h230l-5 -24h-239q-49 0 -49 38z" />
    <glyph glyph-name="uni0E32" unicode="&#xe32;" horiz-adv-x="425" 
d="M343 358q8 38 8 64q0 51 -29.5 77.5t-94.5 26.5q-45 0 -77 -6.5t-65 -21.5l6 25q27 12 64 19.5t75 7.5q148 0 148 -129q0 -27 -8 -64l-75 -357h-28z" />
    <glyph glyph-name="uni0E33" unicode="&#xe33;" horiz-adv-x="425" 
d="M-96.5 617.5q-21.5 21.5 -21.5 54.5q0 30 17.5 56.5t45 42.5t55.5 16q34 0 55 -21t21 -54q0 -31 -17 -57.5t-44 -42.5t-56 -16q-34 0 -55.5 21.5zM25 645q28 28 28 62q0 24 -16.5 40.5t-41.5 16.5q-34 0 -61 -27t-27 -60q0 -25 16 -42.5t41 -17.5q33 0 61 28zM342 358
q8 38 8 64q0 51 -29.5 77.5t-94.5 26.5q-45 0 -77 -6.5t-65 -21.5l6 25q27 12 64 19.5t75 7.5q148 0 148 -129q0 -27 -8 -64l-75 -357h-28z" />
    <glyph glyph-name="uni0E34" unicode="&#xe34;" 
d="M-376 658h385l-5 -24h-385z" />
    <glyph glyph-name="uni0E35" unicode="&#xe35;" 
d="M-376 658h361l24 113h24l-29 -137h-385z" />
    <glyph glyph-name="uni0E36" unicode="&#xe36;" 
d="M-376 658h268q-14 12 -14 38q0 5 2 17q8 35 34.5 57t62.5 22q32 0 49 -15.5t17 -42.5q0 -43 -29 -71.5t-74 -28.5h-321zM-1 676q20 21 20 52q0 20 -12 31.5t-35 11.5q-31 0 -50.5 -21t-19.5 -53q0 -20 12 -31t35 -11q30 0 50 21z" />
    <glyph glyph-name="uni0E37" unicode="&#xe37;" 
d="M-376 658h227l24 113h24l-24 -113h110l24 113h24l-29 -137h-385z" />
    <glyph glyph-name="uni0E38" unicode="&#xe38;" 
d="M-185 -124l2 12q0 9 -5.5 12.5t-18.5 3.5h-39l5 24h48q39 0 39 -33l-2 -16l-27 -125h-28z" />
    <glyph glyph-name="uni0E39" unicode="&#xe39;" 
d="M-340 -239q-21 17 -21 46q0 6 2 18l12 56l2 12q0 7 -4 9t-14 2h-36l5 24h47q16 0 23.5 -6t7.5 -20q0 -3 -2 -17l-12 -59q-2 -12 -2 -17q0 -41 56 -41q66 0 80 58l21 102h28l-22 -103q-8 -37 -38 -59t-74 -22q-38 0 -59 17z" />
    <glyph glyph-name="uni0E3A" unicode="&#xe3a;" 
d="M-188.5 -110q-6.5 6 -6.5 15q0 12 10.5 21.5t22.5 9.5q9 0 15 -6t6 -15q0 -12 -10 -21.5t-22 -9.5q-9 0 -15.5 6z" />
    <glyph glyph-name="uni0E3F" unicode="&#xe3f;" horiz-adv-x="625" 
d="M233 0h-203l148 699h203l22 103h28l-22 -103h57q71 0 106 -29t35 -88q0 -30 -7 -61q-12 -59 -50.5 -102t-86.5 -61q45 -9 71 -41t26 -83q0 -23 -6 -50q-19 -88 -76 -136t-142 -48h-75l-22 -103h-28zM311 370l65 305h-175l-65 -305h175zM411 370q34 0 68 18t59.5 52
t35.5 81q7 31 7 58q0 52 -29.5 74t-86.5 22h-61l-65 -305h72zM238 24l68 322h-175l-68 -322h175zM335 24q65 0 120.5 39.5t72.5 120.5q5 21 5 47q0 58 -36.5 86.5t-101.5 28.5h-61l-68 -322h69z" />
    <glyph glyph-name="uni0E40" unicode="&#xe40;" horiz-adv-x="264" 
d="M60.5 15q-16.5 15 -16.5 44q0 12 3 25l96 451h28l-96 -453q-3 -12 -3 -22q0 -19 12 -27.5t37 -8.5h38l-5 -24h-45q-32 0 -48.5 15z" />
    <glyph glyph-name="uni0E41" unicode="&#xe41;" horiz-adv-x="487" 
d="M60.5 15q-16.5 15 -16.5 44q0 12 3 25l96 451h28l-96 -453q-3 -12 -3 -22q0 -19 12 -27.5t37 -8.5h38l-5 -24h-45q-32 0 -48.5 15zM283.5 15q-16.5 15 -16.5 44q0 12 3 25l96 451h28l-96 -453q-3 -12 -3 -22q0 -19 12 -27.5t37 -8.5h38l-5 -24h-45q-32 0 -48.5 15z" />
    <glyph glyph-name="uni0E42" unicode="&#xe42;" horiz-adv-x="299" 
d="M116.5 15q-16.5 15 -16.5 44q0 12 3 25l95 444q7 32 7 61q0 48 -21.5 79t-65.5 55l6 29h254l-5 -24h-218q78 -41 78 -137q0 -28 -8 -66l-94 -443q-3 -12 -3 -22q0 -19 12 -27.5t37 -8.5h38l-5 -24h-45q-32 0 -48.5 15z" />
    <glyph glyph-name="uni0E43" unicode="&#xe43;" horiz-adv-x="276" 
d="M79.5 15q-16.5 15 -16.5 44q0 12 3 25l69 324q12 58 38.5 91.5t69.5 69.5q29 23 44.5 40.5t20.5 41.5q3 15 3 27q0 29 -18.5 44.5t-61.5 15.5q-58 0 -121 -32l5 25q58 31 122 31q51 0 75.5 -21.5t24.5 -60.5q0 -43 -18.5 -68.5t-56.5 -56.5q-40 -33 -63.5 -62.5
t-34.5 -79.5l-70 -331q-3 -12 -3 -22q0 -19 12 -27.5t37 -8.5h38l-5 -24h-45q-32 0 -48.5 15z" />
    <glyph glyph-name="uni0E44" unicode="&#xe44;" horiz-adv-x="299" 
d="M100.5 15q-16.5 15 -16.5 44q0 12 3 25l94 441q33 150 156 203h-218l5 24h254l-6 -29q-69 -31 -107.5 -74.5t-54.5 -120.5l-95 -446q-3 -12 -3 -22q0 -19 12 -27.5t37 -8.5h38l-5 -24h-45q-32 0 -48.5 15z" />
    <glyph glyph-name="uni0E45" unicode="&#xe45;" horiz-adv-x="425" 
d="M343 358q7 31 7 61q0 53 -29.5 80t-93.5 27q-45 0 -77 -6.5t-65 -21.5l6 25q27 12 64 19.5t75 7.5q148 0 148 -129q0 -27 -8 -64l-117 -553h-28z" />
    <glyph glyph-name="uni0E46" unicode="&#xe46;" horiz-adv-x="555" 
d="M483 409q8 35 8 57q0 30 -15.5 45t-50.5 15q-37 0 -62 -18t-45 -59h-28q-2 42 -17 59.5t-51 17.5q-39 0 -74 -33t-52 -113q-5 -27 -5 -44q0 -50 31.5 -71.5t90.5 -21.5q17 0 38.5 2t35.5 5l-5 -23q-13 -3 -35 -5.5t-39 -2.5q-65 0 -104 28.5t-39 87.5q0 25 5 45
q20 91 61.5 130.5t95.5 39.5q40 0 57.5 -18t23.5 -55h1q18 35 49.5 54t71.5 19q46 0 67 -22.5t21 -64.5q0 -24 -6 -54l-87 -409h-28z" />
    <glyph glyph-name="uni0E47" unicode="&#xe47;" 
d="M-313 627.5q-21 19.5 -21 52.5q0 12 3 24q11 50 46.5 76.5t87.5 26.5h211l-5 -24h-211q-87 0 -103 -79q-2 -8 -2 -21q0 -25 15 -38.5t42 -13.5q34 0 57 18.5t29 47.5h26q-2 -12 -2 -17q0 -21 13.5 -33t39.5 -12h47l-4 -23h-46q-33 0 -51 15t-18 35q-11 -21 -37.5 -37.5
t-58.5 -16.5q-37 0 -58 19.5z" />
    <glyph glyph-name="uni0E48" unicode="&#xe48;" 
d="M10 784h24l-32 -150h-24z" />
    <glyph glyph-name="uni0E49" unicode="&#xe49;" 
d="M-155 696q1 4 1 11q0 8 -4.5 11t-14.5 3h-42l5 24h46q40 0 40 -32q0 -5 -2 -13l-9 -43h203l-5 -23h-231z" />
    <glyph glyph-name="uni0E4A" unicode="&#xe4a;" 
d="M-335 687q0 13 3 26q11 50 38 74t62 24q51 0 56 -44h1q10 21 29.5 32.5t43.5 11.5q58 0 58 -52q0 -13 -3 -28l-16 -74h21q39 0 47 38l24 116h24l-24 -116q-6 -28 -25 -44.5t-48 -16.5h-47l20 96q3 15 3 25q0 18 -9 25.5t-30 7.5q-52 0 -66 -62l-3 -15h-24l3 15q2 7 2 20
q0 42 -42 42q-27 0 -44 -18.5t-25 -56.5q-2 -14 -2 -23q0 -31 14 -56h-27q-14 23 -14 53z" />
    <glyph glyph-name="uni0E4B" unicode="&#xe4b;" 
d="M-75 706h-74l5 24h74l15 72h24l-15 -72h75l-5 -24h-75l-16 -72h-24z" />
    <glyph glyph-name="uni0E4C" unicode="&#xe4c;" 
d="M-181 671q12 54 71 54h219l-5 -24h-210q-23 0 -33 -7.5t-15 -27.5l-7 -32h-28z" />
    <glyph glyph-name="uni0E4D" unicode="&#xe4d;" 
d="M-96.5 617.5q-21.5 21.5 -21.5 54.5q0 30 17.5 56.5t45 42.5t55.5 16q34 0 55 -21t21 -54q0 -31 -17 -57.5t-44 -42.5t-56 -16q-34 0 -55.5 21.5zM25 645q28 28 28 62q0 24 -16.5 40.5t-41.5 16.5q-34 0 -61 -27t-27 -60q0 -25 16 -42.5t41 -17.5q33 0 61 28z" />
    <glyph glyph-name="uni0E4E" unicode="&#xe4e;" 
d="M-148.5 649q-19.5 15 -19.5 42q0 6 2 18q8 37 36 57.5t67 22.5q-14 12 -14 30q0 29 25.5 49.5t57.5 20.5q31 0 48 -11l-5 -22q-18 12 -47 12q-24 0 -39 -13t-15 -34q0 -27 38 -34l-4 -20q-12 4 -36 4q-39 0 -60 -15t-28 -47q-2 -10 -2 -14q0 -40 56 -40q38 0 64 17
l-5 -22q-27 -16 -64 -16q-36 0 -55.5 15z" />
    <glyph glyph-name="uni0E4F" unicode="&#xe4f;" horiz-adv-x="626" 
d="M110 37.5q-56 52.5 -56 140.5q0 31 7 62q16 75 61 133t109.5 90t136.5 32q93 0 149.5 -53t56.5 -141q0 -24 -7 -61q-16 -75 -61.5 -133t-110 -90t-136.5 -32q-93 0 -149 52.5zM386.5 37.5q57.5 28.5 98.5 80.5t56 122q6 32 6 59q0 81 -48.5 126.5t-135.5 45.5
q-65 0 -123 -28.5t-98.5 -81t-54.5 -121.5q-7 -31 -7 -63q0 -79 48.5 -123.5t135.5 -44.5q65 0 122.5 28.5zM176 103.5q-38 35.5 -38 95.5q0 16 5 41q10 50 40.5 89.5t74.5 61t92 21.5q63 0 101 -35.5t38 -96.5q0 -21 -4 -40q-11 -50 -41.5 -89.5t-74.5 -61t-92 -21.5
q-63 0 -101 35.5zM395 132.5q49 40.5 64 107.5q4 19 4 40q0 51 -30.5 79.5t-87.5 28.5q-64 0 -113 -40.5t-63 -107.5q-5 -25 -5 -41q0 -50 31 -78.5t87 -28.5q64 0 113 40.5z" />
    <glyph glyph-name="uni0E50" unicode="&#xe50;" horiz-adv-x="626" 
d="M110 37.5q-56 52.5 -56 140.5q0 31 7 62q16 76 59.5 133.5t108 89.5t139.5 32q93 0 149.5 -53t56.5 -141q0 -24 -7 -61q-16 -76 -60 -133.5t-108.5 -89.5t-139.5 -32q-93 0 -149 52.5zM386.5 37.5q57.5 28.5 98.5 80.5t56 122q7 39 7 61q0 79 -48.5 124.5t-136.5 45.5
q-65 0 -123 -28.5t-98.5 -81t-54.5 -121.5q-7 -31 -7 -62q0 -79 49 -124t135 -45q65 0 122.5 28.5z" />
    <glyph glyph-name="uni0E51" unicode="&#xe51;" horiz-adv-x="642" 
d="M229 -58q276 58 325 286q10 50 10 83q0 78 -46.5 119t-148.5 41q-112 0 -185 -56.5t-94 -157.5q-6 -28 -6 -53q0 -62 39 -95.5t112 -33.5q31 0 61 7t49 20l-5 -25q-50 -26 -111 -26q-81 0 -126 40.5t-45 111.5q0 26 6 54q24 112 104.5 175t205.5 63q109 0 162.5 -47.5
t53.5 -136.5q0 -33 -10 -83q-26 -121 -112.5 -198.5t-243.5 -112.5z" />
    <glyph glyph-name="uni0E52" unicode="&#xe52;" horiz-adv-x="697" 
d="M130.5 28q-62.5 43 -62.5 128q0 26 6 54l72 340h28l-74 -349q-5 -27 -5 -46q0 -73 55.5 -109.5t149.5 -36.5q63 0 122 19t101 57t53 92l43 201q4 19 4 37q0 30 -16 43t-49 13q-32 0 -59 -19t-46 -58h-28q-1 40 -16 58.5t-47 18.5q-90 0 -122 -151q-5 -27 -5 -43
q0 -46 27 -67.5t74 -21.5q43 0 70 8l-5 -25q-31 -7 -70 -7q-58 0 -90 29t-32 82q0 25 5 45q36 175 153 175q40 0 58 -19t20 -54h1q17 33 48.5 53t68.5 20q89 0 89 -78q0 -18 -4 -35l-42 -196q-14 -65 -59.5 -110.5t-111 -68t-140.5 -22.5q-102 0 -164.5 43z" />
    <glyph glyph-name="uni0E53" unicode="&#xe53;" horiz-adv-x="647" 
d="M77.5 23.5q-30.5 38.5 -30.5 110.5q0 40 11 95q28 131 86 198.5t138 67.5q75 0 91 -60q24 28 59.5 44t70.5 16q43 0 70 -22.5t27 -65.5q0 -8 -4 -32l-79 -375h-28l79 375q4 16 4 32q0 64 -80 64q-37 0 -71.5 -22.5t-41.5 -57.5l-48 -225h-28l48 225q2 12 2 18
q0 29 -20 45.5t-53 16.5q-70 0 -120 -64.5t-75 -177.5q-11 -55 -11 -92q0 -63 25 -95t71 -32q41 0 72 9l-6 -26q-35 -8 -72 -8q-56 0 -86.5 38.5z" />
    <glyph glyph-name="uni0E54" unicode="&#xe54;" horiz-adv-x="618" 
d="M102.5 42q-51.5 42 -51.5 123q0 33 7 65q57 265 360 265h40q61 0 99.5 13t59.5 56h26q-21 -42 -49.5 -62t-69 -26t-112.5 -6q-139 0 -221 -61t-107 -179q-7 -32 -7 -62q0 -73 45 -109t129 -36h109q-24 13 -37.5 37.5t-13.5 55.5q0 17 3 33q13 65 58.5 105t111.5 40
q53 0 79 -16l-6 -25q-11 8 -31.5 12.5t-43.5 4.5q-57 0 -93.5 -33.5t-48.5 -87.5q-4 -24 -4 -33q0 -92 129 -92h70l-5 -24h-281q-93 0 -144.5 42z" />
    <glyph glyph-name="uni0E55" unicode="&#xe55;" horiz-adv-x="618" 
d="M102 41.5q-51 41.5 -51 122.5q0 32 7 66q26 120 105 186.5t210 76.5q-15 14 -15 41q0 11 1 16q8 35 34.5 57.5t62.5 22.5q29 0 47 -17.5t18 -44.5q0 -20 -10 -40t-27 -33q47 2 80.5 16.5t52.5 52.5h26q-20 -40 -47.5 -60t-66.5 -27t-104 -7h-13q-139 0 -221 -61
t-107 -179q-7 -32 -7 -63q0 -144 174 -144h109q-23 11 -37 36.5t-14 58.5q0 15 3 31q13 64 58.5 104.5t111.5 40.5q53 0 79 -16l-6 -25q-11 8 -31.5 12.5t-43.5 4.5q-57 0 -93.5 -33.5t-48.5 -87.5q-4 -24 -4 -33q0 -92 129 -92h70l-5 -24h-281q-94 0 -145 41.5zM477.5 512
q21.5 22 21.5 52q0 19 -12.5 31.5t-34.5 12.5q-30 0 -50.5 -21.5t-20.5 -50.5q0 -20 12.5 -33t33.5 -13q29 0 50.5 22z" />
    <glyph glyph-name="uni0E56" unicode="&#xe56;" horiz-adv-x="661" 
d="M171 2q-55 17 -84 47l5 26q39 -33 88.5 -49t113.5 -16q65 0 124 27.5t100.5 79t56.5 120.5q8 40 8 71q0 76 -43 119.5t-134 43.5q-177 0 -267 -167h-26l-6 247h26l1 -213q42 74 113 115.5t164 41.5q98 0 148 -51t50 -136q0 -31 -8 -71q-16 -74 -60.5 -131t-110 -89
t-142.5 -32q-62 0 -117 17z" />
    <glyph glyph-name="uni0E57" unicode="&#xe57;" horiz-adv-x="820" 
d="M77.5 23.5q-30.5 38.5 -30.5 110.5q0 40 11 95q29 132 84 199t135 67q39 0 59.5 -15.5t28.5 -44.5q24 28 58 44t69 16q42 0 67 -22t25 -64q0 -18 -4 -34l-74 -351q77 0 124.5 27.5t64.5 105.5l83 393h28l-81 -384q-20 -95 -75 -130.5t-149 -35.5h-28l79 375q4 17 4 34
q0 32 -18.5 47t-56.5 15q-37 0 -70 -22.5t-40 -57.5l-48 -225h-28l48 225q2 14 2 20q0 28 -18.5 44t-51.5 16q-69 0 -117 -63.5t-73 -178.5q-11 -57 -11 -94q0 -62 25 -93.5t71 -31.5q41 0 72 9l-6 -26q-35 -8 -72 -8q-56 0 -86.5 38.5z" />
    <glyph glyph-name="uni0E58" unicode="&#xe58;" horiz-adv-x="650" 
d="M44 122q0 42 12 99q30 141 118.5 207.5t233.5 66.5q62 0 95.5 2.5t66.5 17.5t50 49h26q-21 -42 -51 -61.5t-73 -25.5t-119 -6q-126 0 -209 -59.5t-111 -190.5q-12 -57 -12 -98q0 -59 26 -86.5t79 -27.5q37 0 69 18.5t40 53.5l21 99h28l-21 -100q-1 -4 -1 -11
q0 -28 28.5 -44t58.5 -16q54 0 92.5 35.5t53.5 107.5q5 28 5 44q0 72 -69 72q-46 0 -77 -17l5 25q32 16 81 16q38 0 62.5 -23.5t24.5 -71.5q0 -18 -5 -45q-18 -81 -65 -124t-112 -43q-34 0 -61 14t-42 40q-22 -26 -54.5 -40t-69.5 -14q-124 0 -124 137z" />
    <glyph glyph-name="uni0E59" unicode="&#xe59;" horiz-adv-x="702" 
d="M81.5 24.5q-33.5 39.5 -33.5 112.5q0 42 10 89q28 133 82.5 201t133.5 68q39 0 58.5 -14t31.5 -43q19 27 51 42t69 15q51 0 78.5 -24t27.5 -72q0 -8 -2 -28l114 179h26l-160 -252h-26l21 33q5 37 5 57q0 47 -20 64.5t-67 17.5q-42 0 -76 -22.5t-32 -53.5l29 -394h-28
l-29 398q-2 36 -19.5 54t-57.5 18q-67 0 -113 -65.5t-70 -178.5q-11 -53 -11 -90q0 -64 27.5 -95.5t79.5 -31.5q43 0 70 8l-5 -25q-31 -7 -70 -7q-61 0 -94.5 39.5z" />
    <glyph glyph-name="uni0E5A" unicode="&#xe5a;" horiz-adv-x="781" 
d="M389 306q-33 -23 -76.5 -35.5t-86.5 -12.5q-59 0 -97 28t-38 82q0 19 4 35q15 72 62.5 109.5t114.5 37.5q47 0 70 -10l-5 -23q-24 9 -70 9q-55 0 -94 -31t-52 -92q-4 -16 -4 -34q0 -44 30 -65.5t84 -21.5q88 0 163 49l43 204h28l-42 -199q18 -29 45 -41.5t67 -12.5
q44 0 81.5 11.5t76.5 37.5l43 204h28l-113 -535h-28l65 306q-34 -23 -74.5 -35.5t-83.5 -12.5q-32 0 -64 12.5t-50 34.5l-64 -305h-28z" />
    <glyph glyph-name="uni0E5B" unicode="&#xe5b;" horiz-adv-x="1129" 
d="M109 31q-57 46 -57 135q0 30 8 72q24 115 96.5 186t180.5 71q84 0 127 -39t43 -106q0 -24 -6 -51q-21 -100 -73.5 -144t-118.5 -44q-28 0 -48 6.5t-39 19.5l5 25q14 -13 37 -20t49 -7q54 0 98 36t64 128q5 27 5 46q0 59 -36.5 92.5t-111.5 33.5q-93 0 -158.5 -64.5
t-87.5 -168.5q-8 -40 -8 -68q0 -82 52 -121.5t149 -39.5q120 0 202 73t112 211l21 101h31l19 -244h2l93 230h26l25 -206h2l79 186h23l25 -164h2l41 77h95l-5 -22h-81l-46 -87h-22l-24 159h-2l-78 -184h-27l-25 202h-2l-90 -223h-28l-19 241h-2q-16 -175 -107 -274.5
t-245 -99.5q-108 0 -165 46z" />
    <glyph glyph-name="uni0E24.short" horiz-adv-x="613" 
d="M530 354q6 30 6 54q0 61 -39.5 89.5t-121.5 28.5q-74 0 -130.5 -22.5t-112.5 -74.5l32 -71l-59 -276q-3 -12 -3 -22q0 -19 12.5 -27.5t41.5 -8.5h51l-5 -24h-59q-34 0 -51.5 15.5t-17.5 44.5q0 11 3 24l58 270l-34 75q60 60 125.5 90.5t153.5 30.5q91 0 138 -37t47 -105
q0 -23 -6 -50l-106 -496h-28z" />
    <glyph glyph-name="uni0E26.short" horiz-adv-x="647" 
d="M564 354q6 30 6 53q0 62 -40 90.5t-121 28.5q-74 0 -130.5 -22t-112.5 -74l52 -71l-59 -275q-17 -84 -100 -84h-49l5 24h41q33 0 50.5 13t24.5 45l58 272l-54 75q60 60 125.5 90.5t153.5 30.5q91 0 138 -37t47 -105q0 -23 -6 -50l-106 -496h-28z" />
    <glyph glyph-name="doChadathai.short" horiz-adv-x="647" 
d="M135 -120q24 24 72.5 41.5t91.5 17.5q97 0 164 -60l101 475q6 30 6 55q0 60 -39.5 88.5t-121.5 28.5q-74 0 -130.5 -22.5t-112.5 -74.5l52 -71l-59 -274q-8 -40 -34 -62t-66 -22h-49l5 24h41q33 0 50.5 13t24.5 45l58 272l-54 75q60 60 125.5 90.5t153.5 30.5
q91 0 138 -37t47 -105q0 -23 -6 -50l-108 -504h-28q-39 35 -76.5 48t-87.5 13q-43 0 -86.5 -17t-77.5 -47z" />
    <glyph glyph-name="toPatakthai.short" horiz-adv-x="647" 
d="M107.5 -142q-25.5 7 -38.5 18l5 25q16 -12 40.5 -19t49.5 -7q54 0 86.5 22t55.5 73h28l129 -90l101 474q6 29 6 52q0 62 -40 91t-121 29q-74 0 -130.5 -22t-112.5 -74l52 -71l-59 -275q-8 -40 -34 -62t-66 -22h-49l5 24h41q33 0 50.5 13t24.5 45l58 272l-54 75
q60 60 125.5 90.5t153.5 30.5q91 0 138 -37t47 -105q0 -23 -6 -50l-108 -504h-28l-136 96q-26 -53 -66 -76t-96 -23q-26 0 -51.5 7z" />
    <glyph glyph-name="yoYingthai.less" horiz-adv-x="993" 
d="M514 26.5q-45 41.5 -45 111.5q0 26 6 54l35 162q7 37 7 57q0 60 -37 87.5t-115 27.5q-69 0 -122.5 -22.5t-110.5 -75.5l32 -70l-59 -276q-3 -13 -3 -23q0 -19 12 -27t39 -8h54l-5 -24h-59q-34 0 -51.5 15.5t-17.5 44.5q0 11 3 24l58 270l-34 75q60 61 122.5 91t146.5 30
q87 0 131 -36t44 -103q0 -24 -6 -53l-37 -171q-6 -28 -6 -53q0 -125 154 -125q94 0 150.5 48t73.5 130l74 348h28l-73 -343q-20 -98 -84.5 -152.5t-173.5 -54.5q-86 0 -131 41.5z" />
    <glyph glyph-name="thoThanthai.less" horiz-adv-x="577" 
d="M116 294h28l9 -270q84 0 156.5 31t121.5 88.5t66 135.5q9 44 9 80q0 167 -194 167q-111 0 -198 -35l5 25q39 16 90.5 25t107.5 9q102 0 158 -48l83 73h31l-99 -87q42 -48 42 -129q0 -36 -9 -80q-18 -82 -70.5 -145.5t-127.5 -98.5t-159 -35h-40z" />
    <glyph glyph-name="loChulathai.short" horiz-adv-x="626" 
d="M143 535h28l-103 -487l258 292h15l134 -292l65 308q9 45 9 64q0 37 -23 54.5t-82 19.5l4 20l162 200h34l-162 -200q52 -8 73.5 -30.5t21.5 -61.5q0 -23 -9 -66l-75 -356h-27l-139 304l-266 -304h-31z" />
    <glyph glyph-name="uni0E31.narrow" 
d="M-384 672q0 4 2 16l8 37h28l-7 -32q-2 -12 -2 -14q0 -11 8 -16t26 -5h206l-5 -24h-215q-49 0 -49 38z" />
    <glyph glyph-name="uni0E48.small" 
d="M33 928h24l-26 -120h-24z" />
    <glyph glyph-name="uni0E49.small" 
d="M-63 871q1 4 1 10q0 8 -4.5 11.5t-15.5 3.5h-42l5 23h46q39 0 39 -33q0 -8 -1 -12l-10 -44h161l-4 -22h-188z" />
    <glyph glyph-name="uni0E49.narrow" 
d="M-325 696q1 4 1 11q0 8 -4.5 11t-14.5 3h-42l5 24h46q40 0 40 -32q0 -5 -2 -13l-9 -43h204l-5 -23h-232z" />
    <glyph glyph-name="uni0E4A.small" 
d="M-148 850q0 13 3 25q9 45 34.5 67.5t57.5 22.5q46 0 49 -40h1q10 20 27.5 30t39.5 10q53 0 53 -47q0 -12 -3 -26l-13 -63h16q35 0 42 34l21 99h22l-21 -99q-5 -25 -22.5 -40t-44.5 -15h-39l18 83q3 12 3 22q0 16 -9 23t-28 7q-50 0 -61 -56l-3 -13h-21l3 13q2 12 2 18
q0 38 -37 38q-26 0 -41.5 -16.5t-22.5 -51.5q-2 -7 -2 -22q0 -24 12 -50h-25q-11 22 -11 47z" />
    <glyph glyph-name="uni0E4A.narrow" 
d="M-444 687q0 13 3 26q11 50 37 74t61 24q26 0 39 -11t15 -33h1q21 44 71 44q57 0 57 -50q0 -8 -4 -30l-16 -74h11q40 0 48 38l24 116h24l-24 -116q-6 -28 -25 -44.5t-49 -16.5h-37l20 96q3 17 3 27q0 16 -8.5 23.5t-28.5 7.5q-29 0 -43.5 -17t-20.5 -45l-3 -15h-24l3 15
q3 12 3 22q0 40 -41 40q-27 0 -43 -18t-24 -57q-2 -14 -2 -23q0 -31 14 -56h-27q-14 23 -14 53z" />
    <glyph glyph-name="uni0E4B.small" 
d="M20 870h-74l5 24h75l13 62h24l-13 -62h75l-6 -24h-75l-13 -62h-24z" />
    <glyph glyph-name="uni0E4C.small" 
d="M-124 845q11 54 70 54h171l-5 -24h-162q-23 0 -33 -7.5t-14 -27.5l-7 -32h-28z" />
    <glyph glyph-name="uni0E4C.narrow" 
d="M-347 671q12 54 71 54h192l-5 -24h-183q-23 0 -33 -7.5t-15 -27.5l-7 -32h-28z" />
    <glyph glyph-name="uni0E47.narrow" 
d="M-397 626.5q-21 19.5 -21 52.5q0 12 3 24q11 50 46.5 76.5t87.5 26.5h212l-5 -24h-212q-87 0 -103 -79q-2 -8 -2 -21q0 -25 15 -38.5t42 -13.5q34 0 57 18.5t29 47.5h26q-2 -12 -2 -17q0 -21 13.5 -33t39.5 -12h48l-4 -23h-47q-33 0 -51 15t-18 35q-11 -21 -37.5 -37.5
t-58.5 -16.5q-37 0 -58 19.5z" />
    <glyph glyph-name="uni0E34.narrow" 
d="M-466 658h356l-5 -24h-356z" />
    <glyph glyph-name="uni0E35.narrow" 
d="M-466 658h332l24 113h24l-29 -137h-356z" />
    <glyph glyph-name="uni0E36.narrow" 
d="M-466 658h228q-14 12 -14 38q0 5 2 17q8 35 34.5 57t63.5 22q32 0 49 -15.5t17 -42.5q0 -43 -29 -71.5t-75 -28.5h-281zM-130 676q20 21 20 52q0 20 -12 31.5t-35 11.5q-32 0 -51.5 -21t-19.5 -53q0 -20 12 -31t35 -11q31 0 51 21z" />
    <glyph glyph-name="uni0E37.narrow" 
d="M-466 658h207l24 113h24l-24 -113h101l24 113h24l-29 -137h-356z" />
    <glyph glyph-name="uni0E4D0E48" 
d="M34 968h24l-26 -120h-24zM-96.5 617.5q-21.5 21.5 -21.5 54.5q0 30 17.5 56.5t45 42.5t55.5 16q34 0 55 -21t21 -54q0 -31 -17 -57.5t-44 -42.5t-56 -16q-34 0 -55.5 21.5zM25 645q28 28 28 62q0 24 -16.5 40.5t-41.5 16.5q-34 0 -61 -27t-27 -60q0 -25 16 -42.5
t41 -17.5q33 0 61 28z" />
    <glyph glyph-name="uni0E4D0E49" 
d="M-63 911q1 4 1 10q0 8 -4.5 11.5t-15.5 3.5h-42l5 23h46q39 0 39 -33q0 -8 -1 -12l-10 -44h161l-4 -22h-188zM-96.5 617.5q-21.5 21.5 -21.5 54.5q0 30 17.5 56.5t45 42.5t55.5 16q34 0 55 -21t21 -54q0 -31 -17 -57.5t-44 -42.5t-56 -16q-34 0 -55.5 21.5zM25 645
q28 28 28 62q0 24 -16.5 40.5t-41.5 16.5q-34 0 -61 -27t-27 -60q0 -25 16 -42.5t41 -17.5q33 0 61 28z" />
    <glyph glyph-name="uni0E4D0E4A" 
d="M-148 890q0 13 3 25q9 45 34.5 67.5t57.5 22.5q46 0 49 -40h1q10 20 27.5 30t39.5 10q53 0 53 -47q0 -12 -3 -26l-13 -63h16q35 0 42 34l21 99h22l-21 -99q-5 -25 -22.5 -40t-44.5 -15h-39l18 83q3 12 3 22q0 16 -9 23t-28 7q-50 0 -61 -56l-3 -13h-21l3 13q2 12 2 18
q0 38 -37 38q-26 0 -41.5 -16.5t-22.5 -51.5q-2 -7 -2 -22q0 -24 12 -50h-25q-11 22 -11 47zM-96.5 617.5q-21.5 21.5 -21.5 54.5q0 30 17.5 56.5t45 42.5t55.5 16q34 0 55 -21t21 -54q0 -31 -17 -57.5t-44 -42.5t-56 -16q-34 0 -55.5 21.5zM25 645q28 28 28 62
q0 24 -16.5 40.5t-41.5 16.5q-34 0 -61 -27t-27 -60q0 -25 16 -42.5t41 -17.5q33 0 61 28z" />
    <glyph glyph-name="uni0E4D0E4B" 
d="M20 910h-74l5 24h75l13 62h24l-13 -62h75l-6 -24h-75l-13 -62h-24zM-96.5 617.5q-21.5 21.5 -21.5 54.5q0 30 17.5 56.5t45 42.5t55.5 16q34 0 55 -21t21 -54q0 -31 -17 -57.5t-44 -42.5t-56 -16q-34 0 -55.5 21.5zM25 645q28 28 28 62q0 24 -16.5 40.5t-41.5 16.5
q-34 0 -61 -27t-27 -60q0 -25 16 -42.5t41 -17.5q33 0 61 28z" />
    <glyph glyph-name="uni0E3A.small" 
d="M-208.5 -218q-6.5 6 -6.5 15q0 12 10.5 21.5t22.5 9.5q9 0 15 -6t6 -15q0 -12 -10 -21.5t-22 -9.5q-9 0 -15.5 6z" />
    <glyph glyph-name="uni0E38.small" 
d="M-203 -214q1 5 1 12q0 9 -5 12.5t-18 3.5h-39l5 24h48q39 0 39 -33l-2 -16l-27 -125h-28z" />
    <glyph glyph-name="uni0E39.small" 
d="M-357 -329q-21 17 -21 46q0 6 2 18l12 56l2 12q0 7 -4 9t-14 2h-36l5 24h47q16 0 23.5 -6t7.5 -20q0 -3 -2 -17l-13 -59q-2 -12 -2 -16q0 -42 57 -42q67 0 79 58l22 102h28l-22 -103q-8 -37 -38 -59t-74 -22q-38 0 -59 17z" />
    <glyph glyph-name="uni0E48.narrow" 
d="M-229 784h24l-32 -150h-24z" />
    <glyph glyph-name="uni0E4B.narrow" 
d="M-245 706h-75l5 24h75l15 72h24l-15 -72h75l-5 -24h-75l-16 -72h-24z" />
    <glyph glyph-name="uni0E4D.narrow" 
d="M-321 617.5q-22 21.5 -22 54.5q0 30 17.5 56.5t45 42.5t56.5 16q33 0 54.5 -21t21.5 -54q0 -31 -17 -57.5t-44 -42.5t-56 -16q-34 0 -56 21.5zM-199 645q28 28 28 62q0 24 -16.5 40.5t-41.5 16.5q-34 0 -61.5 -27t-27.5 -60q0 -25 16 -42.5t42 -17.5q33 0 61 28z" />
    <glyph glyph-name="uni0E4D0E48.narrow" 
d="M-196 968h24l-26 -120h-24zM-321 617.5q-22 21.5 -22 54.5q0 30 17.5 56.5t45 42.5t56.5 16q33 0 54.5 -21t21.5 -54q0 -31 -17 -57.5t-44 -42.5t-56 -16q-34 0 -56 21.5zM-199 645q28 28 28 62q0 24 -16.5 40.5t-41.5 16.5q-34 0 -61.5 -27t-27.5 -60q0 -25 16 -42.5
t42 -17.5q33 0 61 28z" />
    <glyph glyph-name="uni0E4D0E49.narrow" 
d="M-284 911q1 4 1 10q0 8 -4.5 11.5t-15.5 3.5h-42l5 23h46q39 0 39 -33q0 -8 -1 -12l-10 -44h161l-4 -22h-188zM-321 617.5q-22 21.5 -22 54.5q0 30 17.5 56.5t45 42.5t56.5 16q33 0 54.5 -21t21.5 -54q0 -31 -17 -57.5t-44 -42.5t-56 -16q-34 0 -56 21.5zM-199 645
q28 28 28 62q0 24 -16.5 40.5t-41.5 16.5q-34 0 -61.5 -27t-27.5 -60q0 -25 16 -42.5t42 -17.5q33 0 61 28z" />
    <glyph glyph-name="uni0E4D0E4A.narrow" 
d="M-348 890q0 13 3 25q9 45 34.5 67.5t57.5 22.5q46 0 49 -40h1q10 20 27.5 30t39.5 10q53 0 53 -47q0 -12 -3 -26l-13 -63h16q35 0 42 34l21 99h22l-21 -99q-5 -25 -22.5 -40t-44.5 -15h-39l18 83q3 12 3 22q0 16 -9 23t-28 7q-50 0 -61 -56l-3 -13h-21l3 13q2 12 2 18
q0 38 -37 38q-26 0 -41.5 -16.5t-22.5 -51.5q-2 -7 -2 -22q0 -24 12 -50h-25q-11 22 -11 47zM-321 617.5q-22 21.5 -22 54.5q0 30 17.5 56.5t45 42.5t56.5 16q33 0 54.5 -21t21.5 -54q0 -31 -17 -57.5t-44 -42.5t-56 -16q-34 0 -56 21.5zM-199 645q28 28 28 62
q0 24 -16.5 40.5t-41.5 16.5q-34 0 -61.5 -27t-27.5 -60q0 -25 16 -42.5t42 -17.5q33 0 61 28z" />
    <glyph glyph-name="uni0E4D0E4B.narrow" 
d="M-210 910h-74l5 24h75l13 62h24l-13 -62h75l-6 -24h-75l-13 -62h-24zM-321 617.5q-22 21.5 -22 54.5q0 30 17.5 56.5t45 42.5t56.5 16q33 0 54.5 -21t21.5 -54q0 -31 -17 -57.5t-44 -42.5t-56 -16q-34 0 -56 21.5zM-199 645q28 28 28 62q0 24 -16.5 40.5t-41.5 16.5
q-34 0 -61.5 -27t-27.5 -60q0 -25 16 -42.5t42 -17.5q33 0 61 28z" />
  </font>
</defs>
</svg>
